<svg width="77" height="53" viewBox="0 0 77 53" fill="none" xmlns="http://www.w3.org/2000/svg">
<path d="M10.6449 0H0.902754C0.413767 0 0 0.41406 0 0.903407V52.0966C0 52.5859 0.413767 53 0.902754 53H10.6449C11.1338 53 11.5476 52.5859 11.5476 52.0966V0.903407C11.51 0.376418 11.1338 0 10.6449 0Z" fill="#F8731A"/>
<path d="M70.4518 0H60.1455C59.7693 0 59.4308 0.225855 59.3179 0.602275L52.2841 21.1548C52.0584 21.7947 51.118 21.6442 51.118 20.9666L51.3813 0.903407C51.3813 0.41406 51.0052 0 50.4786 0H39.4576C39.0814 0 38.7805 0.225852 38.63 0.564631L30.2044 21.343C29.9411 21.9453 29.0384 21.7571 29.076 21.1172L29.565 0.903407C29.565 0.41406 29.1888 0 28.6622 0H18.8073C18.3183 0 17.9045 0.41406 17.9045 0.903407V38.2819C17.9045 38.7713 18.3183 39.1854 18.8073 39.1854H30.8439C31.1824 39.1854 31.5209 38.9595 31.6714 38.6584L41.1126 16.8636C41.3759 16.2614 42.241 16.4496 42.241 17.0895L42.0529 38.2819C42.0529 38.7713 42.4291 39.1854 42.9557 39.1854H55.4813C55.8574 39.1854 56.1583 38.9595 56.3088 38.6207L71.2793 1.24219C71.505 0.639922 71.0536 0 70.4518 0Z" fill="#F8731A"/>
<path d="M67.9691 35.5341H66.4645V34.593H70.5645V35.5341H69.0599V39.1477H67.9691V35.5341Z" fill="#F8731A"/>
<path d="M73.1598 39.1477L72.1066 35.4964V39.1477H71.0157V34.593H72.7836L73.6488 37.8679L74.5515 34.593H76.2818V39.1477H75.2286V35.4964L74.1754 39.1477H73.1598Z" fill="#F8731A"/>
</svg>
