<svg width="379" height="auto" viewBox="0 0 379 56" fill="none" xmlns="http://www.w3.org/2000/svg">
<path d="M14.6215 1.26367H1.22198C0.547791 1.26367 0 1.81146 0 2.48565V53.8506C0 54.5248 0.547791 55.0726 1.22198 55.0726H14.6215C15.2957 55.0726 15.8435 54.5248 15.8435 53.8506V2.48565C15.8435 1.81146 15.2957 1.26367 14.6215 1.26367Z" fill="#F8731A"/>
<path d="M71.6726 1.26367H59.4529C58.7787 1.26367 58.2309 1.81146 58.2309 2.48565V31.9815C58.2309 32.8243 57.0511 33.1192 56.6718 32.3608L41.6289 1.98001C41.4183 1.55864 40.9969 1.30581 40.5334 1.30581H23.0044C22.3302 1.30581 21.7825 1.85359 21.7825 2.52778V53.8928C21.7825 54.567 22.3302 55.1147 23.0044 55.1147H35.2241C35.8983 55.1147 36.4461 54.567 36.4461 53.8928V24.3547C36.4461 23.512 37.626 23.2171 38.0052 23.9755L52.9638 54.4406C53.1745 54.8619 53.5958 55.1147 54.0593 55.1147H71.6726C72.3468 55.1147 72.8945 54.567 72.8945 53.8928V2.48565C72.8945 1.81146 72.3468 1.26367 71.6726 1.26367Z" fill="#F8731A"/>
<path d="M128.726 1.26367H116.507C115.832 1.26367 115.285 1.81146 115.285 2.48565V31.9815C115.285 32.8243 114.105 33.1192 113.726 32.3608L98.6828 1.98001C98.4721 1.55864 98.0507 1.30581 97.5872 1.30581H80.0582C79.384 1.30581 78.8362 1.85359 78.8362 2.52778V53.8928C78.8362 54.567 79.384 55.1147 80.0582 55.1147H92.2779C92.9521 55.1147 93.4999 54.567 93.4999 53.8928V24.3547C93.4999 23.512 94.6797 23.2171 95.059 23.9755L110.018 54.4406C110.228 54.8619 110.65 55.1147 111.113 55.1147H128.726C129.401 55.1147 129.948 54.567 129.948 53.8928V2.48565C129.948 1.81146 129.401 1.26367 128.726 1.26367Z" fill="#F8731A"/>
<path d="M208.118 1.26367H193.96C193.454 1.26367 192.991 1.60077 192.822 2.10641L183.131 30.3803C182.836 31.2652 181.529 31.0124 181.529 30.0854L181.909 2.52778C181.909 1.85359 181.361 1.30581 180.687 1.30581H165.517C165.012 1.30581 164.59 1.60078 164.38 2.06428L152.792 30.6331C152.455 31.4759 151.191 31.2231 151.233 30.296L151.907 2.56992C151.907 1.89573 151.359 1.30581 150.685 1.30581H137.159C136.485 1.30581 135.937 1.85359 135.937 2.52778V53.8927C135.937 54.5669 136.485 55.1147 137.159 55.1147H153.719C154.225 55.1147 154.646 54.8198 154.857 54.3984L167.835 24.4811C168.172 23.6805 169.394 23.9334 169.394 24.8182L169.141 53.9349C169.141 54.6091 169.689 55.1568 170.363 55.1568H187.597C188.103 55.1568 188.566 54.8619 188.735 54.3984L209.298 3.03343C209.593 2.10642 209.003 1.26367 208.118 1.26367Z" fill="#F8731A"/>
<path d="M235.464 0C216.333 0 204.493 13.0625 203.271 30.7178C202.302 47.5726 214.437 56 228.974 56C248.105 56 259.945 42.9375 261.167 25.2822C262.01 8.51166 250.169 0 235.464 0ZM244.607 25.7457C244.017 34.7209 239.298 43.0218 230.407 43.0218C223.749 43.0218 219.536 38.6396 219.789 30.2543C220.378 21.2791 225.098 12.9782 233.989 12.9782C240.688 12.9782 244.86 17.3604 244.607 25.7457Z" fill="#F8731A"/>
<path d="M300.266 33.5406C307.556 30.7174 312.992 25.3239 312.992 15.506C312.992 4.46609 303.637 1.26367 290.364 1.26367H270.939C270.349 1.26367 269.886 1.68505 269.759 2.23283L258.593 53.5978C258.424 54.3563 259.014 55.0726 259.773 55.0726H273.13C273.72 55.0726 274.184 54.6512 274.31 54.1035L277.976 37.1223C278.102 36.5745 278.608 36.1531 279.156 36.1531H283.833C284.339 36.1531 284.802 36.4481 284.971 36.9537L291.586 54.3142C291.755 54.7777 292.218 55.1147 292.724 55.1147H306.208C307.093 55.1147 307.682 54.2299 307.345 53.4293L299.676 34.6783C299.634 34.1727 299.845 33.7092 300.266 33.5406ZM287.625 24.3969H281.81C281.305 24.3969 280.926 23.9334 281.01 23.4277L282.948 14.4526C283.032 14.0733 283.369 13.8205 283.749 13.8205H289.901C293.862 13.8205 296.053 15.211 296.053 18.287C296.053 23.2171 291.797 24.3969 287.625 24.3969Z" fill="#F8731A"/>
<path d="M369.8 3.37052C370.6 2.61205 370.094 1.26367 368.957 1.26367H354.883C354.588 1.26367 354.293 1.39009 354.04 1.60078L335.037 19.2983C334.447 19.8461 333.52 19.2983 333.688 18.5398L337.143 2.73846C337.312 1.98 336.722 1.26367 335.964 1.26367H322.606C322.016 1.26367 321.553 1.68505 321.426 2.23283L310.26 53.5978C310.092 54.3562 310.681 55.0726 311.44 55.0726H324.797C325.387 55.0726 325.851 54.6933 325.977 54.1034L328.632 41.9258C328.674 41.673 328.8 41.4623 329.011 41.2938L335.964 34.8047C336.385 34.4255 337.059 34.5519 337.27 35.0996L344.812 54.2719C344.981 54.7355 345.444 55.0304 345.95 55.0304H359.687C360.572 55.0304 361.161 54.1456 360.824 53.345L348.562 23.8069C348.436 23.512 348.52 23.1327 348.773 22.8799L369.8 3.37052Z" fill="#F8731A"/>
<path d="M366.715 50.059H364.65V48.7949H370.254V50.059H368.232V55.0312H366.715V50.059Z" fill="#F8731A"/>
<path d="M373.794 55.0312L372.362 50.0169V55.0312H370.929V48.7949H373.289L374.511 53.2615L375.775 48.7949H378.135V55.0312H376.66V50.0169L375.227 55.0312H373.794Z" fill="#F8731A"/>
</svg>
