<svg width="11" height="30" viewBox="0 0 11 30" fill="none" xmlns="http://www.w3.org/2000/svg">
<path d="M9.92005 1.42145e-06H8.32531C8.1525 -0.000334128 7.98483 0.0587475 7.8504 0.167342C7.71597 0.275936 7.62296 0.427441 7.58696 0.59646L7.24415 2.18555C6.98673 3.21481 6.5939 3.91487 6.06567 4.28572C5.53744 4.65657 4.61659 4.8422 3.30313 4.84262H0.797999C0.6933 4.84221 0.589551 4.86248 0.492711 4.90228C0.39587 4.94208 0.307846 5.00062 0.233695 5.07454C0.159545 5.14845 0.100729 5.23629 0.0606241 5.33301C0.0205195 5.42972 -8.32652e-05 5.53341 2.52905e-07 5.63811V7.56184C-8.22395e-05 7.66628 0.0204167 7.76971 0.0603252 7.86622C0.100234 7.96273 0.15877 8.05042 0.232588 8.1243C0.306406 8.19818 0.394058 8.25678 0.490536 8.29677C0.587014 8.33675 0.690425 8.35733 0.79486 8.35733H6.89946V29.0909C6.89946 29.332 6.99524 29.5632 7.16574 29.7337C7.33623 29.9042 7.56747 30 7.80859 30H9.76309C9.88258 30.0002 10.0009 29.9768 10.1114 29.9312C10.2218 29.8855 10.3222 29.8186 10.4068 29.7342C10.4913 29.6497 10.5584 29.5495 10.6042 29.4391C10.6499 29.3287 10.6735 29.2104 10.6735 29.0909V0.755935C10.6735 0.556115 10.5941 0.364479 10.4528 0.223185C10.3115 0.0818909 10.1199 0.00251336 9.92005 0.00251336" fill="#F8731A"/>
</svg>
