<svg width="21" height="30" viewBox="0 0 21 30" fill="none" xmlns="http://www.w3.org/2000/svg">
<path d="M18.7808 15.7792C17.9391 14.377 16.7539 13.29 15.2251 12.5182C13.8899 11.8446 12.3784 11.4651 10.6905 11.3796L18.8017 2.93429C18.9503 2.7794 19.0333 2.57314 19.0335 2.35853V0.830972C19.0335 0.721795 19.012 0.613689 18.9702 0.51283C18.9284 0.411972 18.8671 0.32034 18.7899 0.243169C18.7127 0.165998 18.621 0.104801 18.5201 0.0630771C18.4192 0.0213532 18.3111 -8.0245e-05 18.2019 7.4644e-07H0.731833C0.698348 -8.03322e-05 0.665175 0.00644446 0.634215 0.0192026C0.603255 0.0319608 0.575117 0.0507022 0.55141 0.0743514C0.527704 0.0980005 0.508895 0.126094 0.496062 0.157023C0.483229 0.187952 0.476625 0.221108 0.476625 0.254594V3.19504C0.476625 3.26273 0.503511 3.32764 0.551372 3.3755C0.599233 3.42336 0.664147 3.45025 0.731833 3.45025H13.5095L5.48032 11.8173C5.32176 11.9833 5.23343 12.2042 5.23374 12.4337V13.8337C5.23374 14.0703 5.32772 14.2971 5.495 14.4644C5.66229 14.6317 5.88917 14.7257 6.12574 14.7257H10.0303C11.9376 14.7257 13.4664 15.2587 14.6167 16.3247C15.767 17.3908 16.3423 18.7934 16.3427 20.5326C16.3427 22.2998 15.7674 23.7233 14.6167 24.8034C13.466 25.8834 11.9232 26.4234 9.9884 26.4234C8.16454 26.4234 6.67068 25.9255 5.50683 24.9297C4.44654 24.0235 3.8227 22.8435 3.6353 21.3895C3.62124 21.2694 3.56356 21.1586 3.47321 21.0783C3.38285 20.9979 3.26613 20.9536 3.14522 20.9536H0.494501C0.426561 20.9535 0.359316 20.9673 0.296983 20.9943C0.23465 21.0214 0.178573 21.061 0.13227 21.1107C0.0859672 21.1604 0.0504362 21.2192 0.0279063 21.2833C0.00537636 21.3474 -0.00366775 21.4154 0.00134308 21.4832C0.124632 23.0625 0.57094 24.4709 1.34027 25.7083C2.19589 27.083 3.36714 28.142 4.85401 28.8855C6.34088 29.6289 8.05214 30.0004 9.98778 30C11.951 30 13.6976 29.6073 15.2276 28.822C16.7576 28.0366 17.9428 26.9356 18.7832 25.519C19.6249 24.1029 20.0457 22.4828 20.0457 20.659C20.0457 18.8072 19.6249 17.1802 18.7832 15.778" fill="#F8731A"/>
</svg>
