<svg width="21" height="30" viewBox="0 0 21 30" fill="none" xmlns="http://www.w3.org/2000/svg">
<path d="M19.8253 26.5499H6.04586L14.5605 18.8076C16.3547 17.1532 17.694 15.4983 18.5783 13.843C19.4627 12.1877 19.9045 10.5326 19.9036 8.8777C19.9036 7.16734 19.483 5.63861 18.6418 4.29153C17.8006 2.94444 16.6364 1.89262 15.1492 1.13606C13.6624 0.378688 11.9933 0 10.142 0C8.23395 0 6.54393 0.399645 5.07192 1.19894C3.61733 1.97924 2.41876 3.16263 1.61996 4.60713C0.930385 5.83463 0.508548 7.22364 0.354442 8.77414C0.343443 8.89479 0.357787 9.0164 0.396552 9.13118C0.435318 9.24595 0.497651 9.35136 0.579549 9.44063C0.661447 9.5299 0.761101 9.60106 0.872119 9.64955C0.983138 9.69804 1.10307 9.72278 1.22421 9.7222H2.96684C3.18412 9.72075 3.39313 9.63877 3.55346 9.49211C3.71378 9.34545 3.81401 9.14454 3.83476 8.92825C3.94201 7.93581 4.21283 7.04939 4.6472 6.269C5.16492 5.31731 5.94668 4.53555 6.89837 4.01783C7.85177 3.49963 8.94592 3.24012 10.1808 3.23929C11.3865 3.23929 12.4523 3.47086 13.3782 3.934C14.2802 4.37474 15.034 5.06932 15.5468 5.93244C16.0654 6.80242 16.3247 7.78417 16.3247 8.8777C16.3247 10.0559 15.9881 11.2129 15.315 12.3488C14.6419 13.4846 13.59 14.7119 12.1595 16.0307L0.254582 26.9888C0.174357 27.0627 0.110318 27.1525 0.0665031 27.2525C0.0226878 27.3524 4.51296e-05 27.4603 0 27.5694V29.2116C-3.16615e-08 29.3152 0.0204119 29.4178 0.0600714 29.5134C0.0997309 29.6091 0.15786 29.6961 0.231135 29.7693C0.304411 29.8425 0.391397 29.9006 0.487121 29.9402C0.582846 29.9797 0.685432 30.0001 0.789019 30H19.8253C19.9128 30.0001 19.9994 29.9829 20.0802 29.9495C20.161 29.9161 20.2344 29.867 20.2963 29.8052C20.3581 29.7434 20.4071 29.6699 20.4406 29.5891C20.474 29.5083 20.4912 29.4217 20.4911 29.3343V27.2156C20.4911 27.0391 20.4209 26.8697 20.2961 26.7449C20.1712 26.62 20.0019 26.5499 19.8253 26.5499Z" fill="#F8731A"/>
</svg>
