<svg width="8" height="8" viewBox="0 0 8 8" fill="none" xmlns="http://www.w3.org/2000/svg">
    <path fill-rule="evenodd" clip-rule="evenodd" d="M0.822959 2.32296C0.846181 2.29968 0.873769 2.28121 0.904142 2.2686C0.934514 2.256 0.967075 2.24951 0.999959 2.24951C1.03284 2.24951 1.0654 2.256 1.09578 2.2686C1.12615 2.28121 1.15374 2.29968 1.17696 2.32296L3.99996 5.14646L6.82296 2.32296C6.8462 2.29971 6.8738 2.28128 6.90417 2.2687C6.93454 2.25612 6.96709 2.24964 6.99996 2.24964C7.03283 2.24964 7.06538 2.25612 7.09575 2.2687C7.12612 2.28128 7.15371 2.29971 7.17696 2.32296C7.2002 2.3462 7.21864 2.3738 7.23122 2.40417C7.2438 2.43454 7.25027 2.46709 7.25027 2.49996C7.25027 2.53283 7.2438 2.56538 7.23122 2.59575C7.21864 2.62612 7.2002 2.65371 7.17696 2.67696L4.17696 5.67696C4.15374 5.70024 4.12615 5.71871 4.09578 5.73131C4.0654 5.74392 4.03284 5.75041 3.99996 5.75041C3.96707 5.75041 3.93451 5.74392 3.90414 5.73131C3.87377 5.71871 3.84618 5.70024 3.82296 5.67696L0.822959 2.67696C0.799677 2.65374 0.781206 2.62615 0.768602 2.59578C0.755999 2.5654 0.749512 2.53284 0.749512 2.49996C0.749512 2.46707 0.755999 2.43451 0.768602 2.40414C0.781206 2.37377 0.799677 2.34618 0.822959 2.32296Z" fill="black"/>
</svg>
