<svg id="Layer_1" data-name="Layer 1" xmlns="http://www.w3.org/2000/svg" viewBox="0 0 1000 1000"><defs><style>.cls-1{fill:#ff761a;}</style></defs><title>innwork_icons</title><path class="cls-1" d="M655.41,687.37H431.87L570,561.77q43.66-40.26,65.18-80.54t21.5-80.55q0-41.62-20.47-74.4t-56.66-51.19q-36.18-18.43-81.23-18.43-46.43,0-82.25,19.45a139.17,139.17,0,0,0-56,55.29Q343.29,361.27,339.54,399a14.1,14.1,0,0,0,14.11,15.38h28.27A14.24,14.24,0,0,0,396,401.5q2.61-24.15,13.18-43.14a91.17,91.17,0,0,1,36.52-36.52q23.2-12.61,53.25-12.63,29.34,0,51.87,11.27A83.62,83.62,0,0,1,586,352.9q12.62,21.17,12.62,47.78,0,28.67-16.38,56.31t-51.19,59.73L337.92,694.49a12.82,12.82,0,0,0-4.13,9.42v26.64a12.79,12.79,0,0,0,12.8,12.79H655.41a10.79,10.79,0,0,0,10.8-10.8V698.17a10.8,10.8,0,0,0-10.8-10.8"/></svg>