<svg id="Layer_1" data-name="Layer 1" xmlns="http://www.w3.org/2000/svg" viewBox="0 0 1000 1000"><defs><style>.cls-1{fill:#ff761a;}</style></defs><title>innwork_icons</title><path class="cls-1" d="M642.1,512.63q-20.48-34.12-57.68-52.9-32.49-16.39-73.56-18.47l131.58-137a13.51,13.51,0,0,0,3.76-9.34V270.14a13.48,13.48,0,0,0-13.49-13.48H349.31a4.13,4.13,0,0,0-4.14,4.13v47.7a4.14,4.14,0,0,0,4.14,4.14H556.59L426.34,448.36a14.45,14.45,0,0,0-4,10v22.71a14.47,14.47,0,0,0,14.47,14.47h63.34q46.41,0,74.4,25.94t28,68.26q0,43-28,69.28t-75.08,26.28q-44.38,0-72.7-24.23-25.8-22.05-30.36-57.43a8,8,0,0,0-7.95-7.07h-43a8,8,0,0,0-8,8.59q3,38.43,21.72,68.54,20.82,33.45,57,51.54t83.28,18.08q47.77,0,85-19.11t57.68-53.58q20.48-34.46,20.48-78.84,0-45.06-20.48-79.18"/></svg>