<?xml version="1.0" encoding="UTF-8"?>
<svg id="Layer_2" data-name="Layer 2" xmlns="http://www.w3.org/2000/svg" viewBox="0 0 404.7 634.97">
  <g id="Layer_1-2" data-name="Layer 1">
    <g>
      <path class="cls-1" d="M200.69,156.88l-52.46.22c13.08,16.53,33.21,27.11,55.84,27.11l109.19.44,67.67,51.07.22-77.59,1.47-1.98c9.63-12.49,14.62-27.41,14.62-43.06,0-39.16-31.89-71.05-71.05-71.05h-44.82c3.31,9.11,5.07,18.88,5.07,29.1,0,47.24-38.43,85.75-85.75,85.75ZM315.32,92.51c10.43-10.43,27.33-10.43,37.77,0,10.43,10.43,10.43,27.34,0,37.77-10.44,10.43-27.34,10.43-37.77,0-10.43-10.43-10.43-27.34,0-37.77Z"/>
      <path class="cls-1" d="M100.85,220.73c-6.47,0-11.68,5.22-11.68,11.61v196.48c0,6.47,5.22,11.68,11.68,11.68h199.64c6.39,0,11.61-5.22,11.61-11.68v-196.48c0-6.39-5.22-11.61-11.61-11.61H100.85Z"/>
      <path class="cls-1" d="M23.61,116.1l.07,77.67,67.82-51.07,31.96-.15,7.86-.07h8.01l61.35-.29c39.16,0,71.06-31.89,71.06-71.05,0-10.36-2.2-20.21-6.25-29.1-1.1-2.5-2.42-5-3.82-7.35-1.54-2.57-3.23-5-5.14-7.35C243.61,10.65,223.4,0,200.69,0h-122.12C39.33,0,7.44,31.89,7.44,71.13c0,15.65,5.07,30.49,14.62,43.06l1.54,1.91ZM207.45,88.25c-10.44,10.44-27.41,10.44-37.84,0-10.07-10.06-10.43-26.16-1.1-36.59.07-.07.22-.15.22-.15.22-.37.59-.74.88-1.03,6.17-6.17,14.55-8.67,22.56-7.5.07-.08.15,0,.15,0,5.58.73,10.87,3.23,15.14,7.5,10.43,10.43,10.43,27.33,0,37.77ZM71.81,50.48c10.43-10.44,27.33-10.44,37.77,0,10.43,10.43,10.43,27.33,0,37.77-10.43,10.44-27.33,10.44-37.77,0-10.44-10.43-10.44-27.33,0-37.77Z"/>
      <path class="cls-1" d="M310.96,584.77v-53.51h56.03c5.22,0,9.48-4.26,9.48-9.48v-236.23c0-5.29-4.26-9.48-9.48-9.48h-40.19v152.76c0,14.55-11.83,26.38-26.31,26.38H100.85c-14.55,0-26.38-11.83-26.38-26.38v-152.76h-40.19c-5.22,0-9.48,4.19-9.48,9.48v236.23c0,5.22,4.26,9.48,9.48,9.48h56.03v53.81c-54.43,4.88-90.3,13.21-90.3,22.68,0,15.04,90.59,27.23,202.35,27.23s202.35-12.19,202.35-27.23c0-9.66-37.4-18.14-93.73-22.97ZM105,583.86v-52.61h191.27v52.36c-28.07-1.98-60.01-3.11-93.92-3.11s-68.46,1.22-97.35,3.36Z"/>
    </g>
  </g>
</svg>