<?xml version="1.0" encoding="UTF-8"?>
<svg id="Layer_2" data-name="Layer 2" xmlns="http://www.w3.org/2000/svg" viewBox="0 0 824.17 586.38">
  <g id="Layer_1-2" data-name="Layer 1">
    <g>
      <g>
        <path class="cls-1" d="M241.82,185.61l60.49-34.93c4.47-2.58,4.47-9.03,0-11.61l-60.49-34.93c-4.47-2.58-10.06.65-10.06,5.81v69.85c0,5.16,5.59,8.39,10.06,5.81Z"/>
        <path class="cls-1" d="M723.97,139.08l-60.49-34.93c-4.47-2.58-10.06.65-10.06,5.81v69.85c0,5.16,5.59,8.39,10.06,5.81l60.49-34.93c4.47-2.58,4.47-9.03,0-11.61Z"/>
        <path class="cls-1" d="M459.16,121.66l60.49-34.92c4.47-2.58,4.47-9.03,0-11.61l-60.49-34.92c-4.47-2.58-10.06.64-10.06,5.81v69.85c0,5.16,5.59,8.38,10.06,5.81Z"/>
        <path class="cls-1" d="M643.23,362.13V95.47c2.79-3.34,4.54-7.58,4.54-12.28,0-10.63-8.61-19.24-19.24-19.24s-19.24,8.61-19.24,19.24c0,4.7,1.75,8.94,4.54,12.28v255.4c-44.62-14.34-106.05-23.93-174.92-25.93V31.52c2.79-3.34,4.54-7.58,4.54-12.28,0-10.62-8.61-19.24-19.24-19.24s-19.24,8.61-19.24,19.24c0,4.7,1.75,8.94,4.54,12.28v293.06c-72.91.2-139.01,8.88-187.95,22.9V95.47c2.79-3.34,4.54-7.59,4.54-12.28,0-10.63-8.61-19.24-19.24-19.24s-19.24,8.61-19.24,19.24c0,4.69,1.75,8.94,4.54,12.28v261.86c-35.05,13.86-55.88,31.12-55.88,49.85,0,45.63,123.47,82.62,275.78,82.62s275.78-36.99,275.78-82.62c0-16.63-16.44-32.09-44.64-45.05Z"/>
      </g>
      <path class="cls-1" d="M813.56,318.84c-7.79-2.26-15.94,2.22-18.2,10.02l-48.57,167.65c-.73,2.53-2.22,4.54-4.09,5.52-1.19.63-2.35.74-3.53.34-29.49-9.79-86.84-20.41-139.67,18.48-6.54,4.81-7.94,14.01-3.13,20.55,2.88,3.91,7.33,5.99,11.85,5.99,3.02,0,6.08-.93,8.7-2.86,18.82-13.85,38.54-19.74,56.76-21.34v48.5c0,8.12,6.58,14.7,14.7,14.7s14.7-6.58,14.7-14.7v-47.68c10.46,1.45,19.66,3.88,26.83,6.26,8.8,2.92,18.2,2.13,26.47-2.23,8.91-4.68,15.7-13.2,18.64-23.36l48.57-167.64c2.26-7.8-2.23-15.95-10.02-18.2Z"/>
      <path class="cls-1" d="M224.67,520.85c-52.83-38.89-110.19-28.27-139.66-18.48-1.19.39-2.35.29-3.54-.34-1.87-.98-3.36-2.99-4.09-5.52l-48.57-167.65c-2.26-7.79-10.4-12.3-18.2-10.02-7.8,2.26-12.28,10.41-10.02,18.2l48.57,167.65c2.95,10.16,9.74,18.67,18.65,23.36,8.28,4.35,17.68,5.14,26.47,2.22,7.17-2.38,16.37-4.8,26.83-6.26v47.68c0,8.12,6.58,14.7,14.7,14.7s14.7-6.58,14.7-14.7v-48.51c18.22,1.6,37.93,7.49,56.76,21.34,2.62,1.93,5.68,2.86,8.7,2.86,4.51,0,8.97-2.07,11.85-5.99,4.81-6.54,3.41-15.73-3.13-20.55Z"/>
    </g>
  </g>
</svg>