<?xml version="1.0" encoding="UTF-8"?>
<svg id="Layer_2" data-name="Layer 2" xmlns="http://www.w3.org/2000/svg" viewBox="0 0 658.08 616.66">
  <g id="Layer_1-2" data-name="Layer 1">
    <g>
      <g>
        <path class="cls-1" d="M320.97,144.2l74.74-43.15c4.47-2.58,4.47-9.03,0-11.61l-74.74-43.15c-4.47-2.58-10.06.65-10.06,5.81v86.31c0,5.16,5.59,8.39,10.06,5.81Z"/>
        <path class="cls-1" d="M635.52,346.99l-64-63.05c-14.11-13.89-33.21-21.75-53.05-21.75h-181.79c-15.36,0-30.42,4.7-43.06,13.45l-1.18.81h-.02s0-234.02,0-234.02c7.02-3.85,11.84-11.21,11.84-19.79,0-12.5-10.14-22.64-22.64-22.64s-22.64,10.14-22.64,22.64c0,8.57,4.82,15.94,11.85,19.79v249.02l-91.99,63.7c-7.42,5.07-15.58,8.82-24.25,11.1l-106.84,27.48c-28.14,7.2-47.76,32.55-47.76,61.57v78.41c0,4.48,3.6,8.08,8.01,8.08h65.32c0-48.57,39.46-88.03,87.95-88.03s88.03,39.46,88.03,88.03h167.46c0-48.57,39.46-88.03,87.95-88.03s88.03,39.46,88.03,88.03h57.31c4.41,0,8.01-3.6,8.01-8.08v-132.78c0-20.28-8.08-39.68-22.56-53.93Z"/>
        <path class="cls-1" d="M504.73,466.84c-41.29,0-74.95,33.58-74.95,74.95s33.65,74.87,74.95,74.87,74.95-33.58,74.95-74.87-33.65-74.95-74.95-74.95Z"/>
        <path class="cls-1" d="M161.29,466.84c-41.3,0-74.95,33.58-74.95,74.95s33.65,74.87,74.95,74.87,74.95-33.58,74.95-74.87-33.58-74.95-74.95-74.95Z"/>
      </g>
      <g>
        <path class="cls-2" d="M166.06,185.68c0,14.04-11.46,25.42-25.42,25.42h-45.78v-50.77h45.78c13.96,0,25.42,11.39,25.42,25.35Z"/>
        <path class="cls-2" d="M119.84,90.01C55.55,90.01,3.45,142.11,3.45,206.41s52.1,116.39,116.39,116.39,116.39-52.1,116.39-116.39-52.1-116.39-116.39-116.39ZM140.64,233.15h-45.78v51.58h-22.04v-146.44h67.82c26.16,0,47.47,21.23,47.47,47.39s-21.31,47.47-47.47,47.47Z"/>
      </g>
    </g>
  </g>
</svg>