<?xml version="1.0" encoding="utf-8"?>
<!-- Generator: Adobe Illustrator 26.5.0, SVG Export Plug-In . SVG Version: 6.00 Build 0)  -->
<svg version="1.1" id="Layer_1" xmlns="http://www.w3.org/2000/svg" xmlns:xlink="http://www.w3.org/1999/xlink" x="0px" y="0px"
	 viewBox="0 0 1000 1000" style="enable-background:new 0 0 1000 1000;" xml:space="preserve">
<g>
	<path class="st0" d="M10115.25-985.33l-0.37-159.75v-0.07c7.48-4.12,12.6-11.98,12.58-21.12c-0.03-13.33-10.87-24.11-24.2-24.08
		c-13.33,0.03-24.11,10.86-24.08,24.2c0.02,9.12,5.16,16.95,12.63,21.04v0.11l0.44,158.13l-256.88,0.59
		c-91.12,0.22-164.82,74.14-164.82,165.18v0.44c0.22,91.11,74.14,164.89,165.18,164.89h0.44c68.12-74.87,185.31-76.2,255.12-3.01
		l2.28,2.35c91.11-0.22,164.81-74.14,164.81-165.18v-0.44C10258.17-905.68,10195.86-974.67,10115.25-985.33z M9876.74-826.25
		l-49.09,0.15l0.15,49.09c0,6.39-5.14,11.53-11.54,11.53c-6.32,0-11.46-5.14-11.54-11.46l-0.15-49.16l-49.01,0.15
		c-0.07,0-0.07,0-0.07,0c-6.32,0-11.46-5.14-11.54-11.46c0-6.39,5.14-11.53,11.54-11.53l49.08-0.15l-0.15-49.09
		c0-6.32,5.14-11.53,11.54-11.53c6.32,0,11.46,5.14,11.54,11.46l0.15,49.16l49.09-0.15c6.32,0,11.46,5.14,11.53,11.46
		C9888.27-831.39,9883.13-826.25,9876.74-826.25z M10087.4-894.29c1.54-1.55,3.23-2.87,5.07-3.9c6.98-4.19,15.58-4.7,23-1.54
		c2.87,1.25,5.58,3.01,7.93,5.36c9.92,9.92,9.99,26.01,0.08,36c-9.92,10-26.09,10-36.01,0.08
		C10077.48-868.2,10077.48-884.29,10087.4-894.29z M10040.45-811.04c-9.92-9.92-9.99-26.08-0.07-36c9.92-9.99,26.08-9.99,36-0.15
		c9.99,9.92,9.99,26.09,0.07,36.01C10066.53-801.19,10050.44-801.12,10040.45-811.04z M10123.55-764.3
		c-9.92,9.92-26.08,9.99-36,0.07c-9.99-9.92-10.07-26.08-0.15-36c9.92-9.99,26.08-9.99,36-0.08
		C10133.4-790.39,10133.47-774.3,10123.55-764.3z M10170.51-811.55c-9.92,9.99-26.01,9.99-36,0.08c-9.99-9.92-9.99-26.01-0.08-36.01
		c9.92-9.92,26.01-9.99,36.01-0.07C10180.35-837.63,10180.43-821.47,10170.51-811.55z"/>
	<g>
		<path class="st0" d="M10234.41-1089.95l-98.36-56.47c-0.65-0.37-1.46,0.1-1.46,0.85l0.27,113.42c0,0.75,0.81,1.22,1.46,0.84
			l98.09-56.95C10235.06-1088.64,10235.06-1089.58,10234.41-1089.95z"/>
	</g>
</g>
<path class="st0" d="M8812.41-1077.86c0-66.64-54.15-120.87-120.8-120.87c-2.06,0-4.12,0.08-6.1,0.15h-0.06l51.63-46.48
	c12.56-11.31,13.58-30.66,2.27-43.22c-11.3-12.56-30.66-13.58-43.22-2.27l-128.43,115.63l-40.55-45.05l-125.59,113.06l40.55,45.05
	l-128.43,115.63c-12.56,11.31-13.58,30.66-2.27,43.22c6.04,6.71,14.38,10.13,22.75,10.13c7.29,0,14.62-2.59,20.46-7.86l85.54-77.01
	v389.63c0,22.27,18.08,40.41,40.41,40.41h276.8c22.26,0,40.34-18.15,40.34-40.41v-410.89h-14.7
	C8801.39-1020.18,8812.41-1047.73,8812.41-1077.86z M8737.68-999.02h-92.14c-27.11-15.8-45.34-45.26-45.34-78.84
	c0-50.48,41-91.48,91.41-91.48s91.41,41,91.41,91.48C8783.02-1044.28,8764.8-1014.82,8737.68-999.02z M8463.78-999.02l108.5-97.68
	c0,0.01,0,0.02,0,0.03c-0.95,6.1-1.47,12.42-1.47,18.81c0,30.13,11.02,57.68,29.39,78.84H8463.78z"/>
<g>
	<circle class="st0" cx="1874.38" cy="-1131.29" r="75.9"/>
	<path class="st0" d="M1850.97-845.23c-3.23-5.14-6.76-10.07-10.66-14.77c-2.79-3.38-5.73-6.62-9.11-10
		c-1.1-1.1-5.14-4.92-5.14-4.92c-4.04-3.75-8.3-7.2-12.79-10.29c-1.98-1.47-3.97-2.79-6.03-4.12
		c-22.63-14.55-48.79-22.19-75.76-22.19c-8.6,0-17.05,0.74-25.35,2.28c-5.95,1.03-11.83,2.5-17.56,4.33
		c-5.81,1.84-11.46,4.04-16.9,6.62c-49.01,22.85-80.9,72.01-80.9,127.41c0,77.59,63.12,140.64,140.71,140.64
		c77.52,0,140.64-63.05,140.64-140.64C1872.14-797.25,1864.71-823.04,1850.97-845.23z"/>
	<g>
		<path class="st0" d="M1706.95-1179.34v247.99c-8.52,1.25-16.9,3.23-24.98,5.81c-6.32,1.98-12.42,4.41-18.37,7.05v-260.85
			c0-11.98,9.7-21.68,21.67-21.68C1697.26-1201.02,1706.95-1191.32,1706.95-1179.34z"/>
	</g>
	<path class="st0" d="M2072.59-702.9l-67.09-144.53c-11.53-24.98-36.74-41.15-64.29-41.15h-70.69l28.8-109.04
		c6.61-19.84-5-41.67-22.12-41.59l-42.1,0.15c-13.37,0.07-24.1,13.89-23.81,30.64l1.54,97.21c2.06,1.1,4.04,2.35,6.03,3.6
		c8.96,5.66,17.34,12.2,24.91,19.62c0.96,0.88,6.1,6.02,7.57,7.71c1.98,2.13,3.89,4.26,5.66,6.47h0.07
		c7.27,8.89,13.52,18.44,18.74,28.58h65.4c10.66,0,20.43,6.25,24.91,15.94l67.16,144.61c3.67,7.94,11.54,12.56,19.69,12.56
		c3.01,0,6.17-0.66,9.11-1.98C2072.96-679.17,2077.66-692.03,2072.59-702.9z"/>
</g>
<g>
	<path class="st0" d="M301.04-908.69c-22.76,98.63-35.57,237.22-38.74,274.4c-0.46,5.4-4.97,9.49-10.39,9.49h0
		c-5.42,0-9.93-4.09-10.39-9.49c-3.18-37.18-16.04-175.77-38.75-274.4c-1.84-8.01,6.42-14.47,13.77-10.78
		c11.31,5.68,25.36,9.28,35.33,9.28c9.99,0,24.07-3.62,35.41-9.3C294.63-923.16,302.89-916.7,301.04-908.69z"/>
	<path class="st0" d="M748.09-910.53L748.09-910.53c-6.63,0-12.17,5-12.8,11.6c-4.15,43.17-20.34,156.28-48.85,257.7
		c-2.31,8.2,3.86,16.28,12.38,16.28h98.56c8.52,0,14.68-8.08,12.38-16.28c-28.51-101.42-44.7-214.52-48.85-257.7
		C760.26-905.53,754.72-910.53,748.09-910.53z"/>
	<circle class="st0" cx="251.91" cy="-1087.59" r="125.04"/>
	<circle class="st0" cx="748.09" cy="-1087.59" r="125.04"/>
</g>
<g>
	<g>
		<g>
			<path class="st0" d="M7547.8-986.26c0,162.32-131.53,293.92-293.92,293.92c-101.18,0-190.46-51.14-243.29-128.95l111.4-145.34
				c28.88,9.55,64.29-3.38,92.29-39.9c34.31-44.82,49.45-112.94,18.37-136.74c-31.08-23.81-96.55,5.65-130.87,50.41
				c-31.08,40.49-29.83,83.47-6.39,109.04l-102.21,133.36c-21.23-40.56-33.21-86.78-33.21-135.79
				c0-162.31,131.6-293.92,293.92-293.92c104.05,0,195.46,54.01,247.7,135.57l-107.94,140.71c-32.33-15.65-72.38-6.98-95.01,22.63
				l-67.82,88.39c-5.29,6.91-4.04,16.83,2.94,22.19c6.91,5.29,16.83,3.97,22.12-2.94l62.38-81.42l23.88,18.3l-62.38,81.42
				c-5.36,6.91-4.04,16.82,2.86,22.12c2.87,2.21,6.25,3.23,9.63,3.23c4.78,0,9.41-2.13,12.56-6.17l62.39-81.34l23.81,18.3
				l-62.31,81.34c-5.36,6.9-4.04,16.82,2.87,22.19c2.86,2.13,6.25,3.24,9.63,3.24c4.7,0,9.4-2.13,12.56-6.17l67.75-88.47
				c12.64-16.39,18.08-36.74,15.36-57.24c-1.98-15.21-8.3-29.1-18.15-40.41l99.64-129.91
				C7537.22-1075.9,7547.8-1032.33,7547.8-986.26z"/>
		</g>
	</g>
	<g>
		<ellipse class="st0" cx="7247.8" cy="-593.17" rx="202.35" ry="27.23"/>
	</g>
</g>
<g>
	<path class="st0" d="M4606.66-1203.89l120.87,69.78c0.64,0.37,1.45-0.09,1.45-0.84v-139.57c0-0.74-0.81-1.21-1.45-0.84
		l-120.87,69.78C4606.01-1205.19,4606.01-1204.26,4606.66-1203.89z"/>
	<path class="st0" d="M4591.11-1143.99v-89.52c0-16.35-13.25-29.59-29.59-29.59h-33.66c-16.34,0-29.59,13.25-29.59,29.59v5.91
		h-15.02c-80.56,0-146.1,65.54-146.1,146.1v100.33c0,12.63,10.24,22.87,22.87,22.87c12.63,0,22.87-10.24,22.87-22.87v-100.33
		c0-55.35,45.03-100.37,100.37-100.37h15.02v37.87c-46.22,18.43-78.93,63.5-78.93,116.29v320.32c0,13.37,10.84,24.21,24.21,24.21
		h202.3c13.37,0,24.21-10.84,24.21-24.21v-320.32C4670.05-1080.49,4637.33-1125.56,4591.11-1143.99z"/>
	<ellipse class="st0" cx="4547.1" cy="-589.17" rx="202.35" ry="27.23"/>
</g>
<g>
	<path class="st0" d="M5921.21-1280.64c-90.01,0-163.2,73.18-163.2,163.2v84.94h48.64v-84.94c0-63.19,51.36-114.55,114.55-114.55
		c63.12,0,114.55,51.36,114.55,114.55v84.94h48.57v-84.94C6084.34-1207.46,6011.15-1280.64,5921.21-1280.64z"/>
	<path class="st0" d="M6120.56-1008.18h-398.77c-10.65,0-19.33,8.67-19.33,19.32v288.92c0,10.66,8.67,19.32,19.33,19.32h398.77
		c10.65,0,19.32-8.67,19.32-19.32v-288.92C6139.89-999.51,6131.22-1008.18,6120.56-1008.18z M5939.44-832.27v52.24
		c0,10.07-8.16,18.22-18.22,18.22c-10.07,0-18.22-8.16-18.22-18.22v-52.24c-17.85-7.2-30.42-24.62-30.42-45.05
		c0-26.82,21.75-48.64,48.64-48.64c26.82,0,48.64,21.82,48.64,48.64C5969.86-856.89,5957.22-839.47,5939.44-832.27z"/>
	<ellipse class="st0" cx="5921.2" cy="-584.01" rx="202.35" ry="27.23"/>
</g>
<g>
	<g>
		<path class="st0" d="M3414.98-667.93v8.67c0,11.83-9.63,21.46-21.46,21.46l-410.89,0.22c-0.07,0-0.07,0-0.07,0
			c-11.83,0-21.46-9.63-21.46-21.46v-59.81c0.22-11.61,9.77-21.02,21.46-21.09l410.89-0.15c5.73,0,11.17,2.2,15.21,6.25
			c3.97,3.97,6.1,9.18,6.25,14.77v0.44L3414.98-667.93z"/>
	</g>
	<path class="st0" d="M3479.87-814.66l-261.98-175.45c-2.56-1.71-4.14-4.55-4.25-7.63c-0.07-1.87-0.13-3.49-0.13-3.49
		c0-4.26,3.89-7.2,7.35-8.45c38.87-13.89,64.96-50.99,64.96-92.29c0-25.72-10.36-50.26-29.02-68.92
		c-18.74-18.66-43.21-28.95-68.92-28.95c-0.07,0-0.07,0-0.07,0c-54.01,0-97.95,43.94-97.87,97.95c0,7.05,2.87,13.52,7.5,18.08
		c4.63,4.63,11.02,7.5,18.08,7.5c14.45,0,25.99-11.9,25.56-26.37c-0.77-25.41,16.47-46.01,41.89-46.01h4.93
		c12.05,0,23.66,4.99,32.7,14.03c15.13,15.13,18.94,37.46,6.94,57c-5.93,9.66-15.46,16.41-26.01,20.57
		c-23.93,9.43-39.2,31.16-39.2,55.87v6.39c0,0.59,0,1.1,0.07,1.69l-263.28,176.35l-3.01,2.35c-25.94,23.73-34.46,60.18-21.75,92.88
		c10.51,27.19,33.65,46.29,61.21,52.02v-48.86c0-1.69,0.07-3.38,0.22-5.07c-8.52-5.14-12.42-13.3-13.67-16.6
		c-1.91-4.85-6.76-21.38,7.27-35.42l256.66-171.87c1.84,1.47,260.56,171.65,260.56,171.65c14.11,14.04,9.26,30.57,7.35,35.42
		c-1.25,3.24-5.14,11.39-13.67,16.53c0.22,1.69,0.29,3.46,0.29,5.14v48.79c27.55-5.66,50.63-24.84,61.14-52.02
		C3514.4-754.56,3505.81-791,3479.87-814.66z"/>
</g>
<g>
	<path class="st0" d="M8872.81,1927.77H8619.6c-5.88,0-11.17,4.04-13.15,10.21l-21.68,65.18h78.25c5.95,0,10.8,4.78,10.8,10.8
		c0,5.95-4.85,10.8-10.8,10.8h-82.88h-79.58c-8.52,0-15.5,6.91-15.5,15.5l-14.33,58.19h78.04c5.95,0,10.8,4.78,10.8,10.73
		c0,6.03-4.85,10.8-10.8,10.8h-83.33l-0.04,0.18h-100.45v-425.47c7.02-3.84,11.84-11.21,11.84-19.78c0-12.5-10.14-22.64-22.64-22.64
		s-22.64,10.14-22.64,22.64c0,8.57,4.82,15.94,11.84,19.78v482.01h0.02v50.18c0,6.71,5.44,12.14,12.14,12.14h255.4
		c8.59,0,15.54-6.96,15.54-15.55v-79.9h97.18c8.6,0,19.03-2.6,22.93-15.5c0,0,21.38-90.23,21.09-91.41h79.28
		c5.88,0,11.17-4.04,13.23-10.21l25.79-77.81C8889.34,1938.49,8882.58,1927.77,8872.81,1927.77z"/>
	<g>
		<path class="st0" d="M8476.92,1746.72l-92.12-53.19c-0.61-0.35-1.37,0.09-1.37,0.79v106.37c0,0.7,0.76,1.14,1.37,0.79l92.12-53.19
			C8477.53,1747.95,8477.53,1747.07,8476.92,1746.72z"/>
	</g>
</g>
<g>
	<g>
		<path class="st0" d="M9738.44,1668.34h155.48v554.62h-155.48c-14.11,0-25.57-11.46-25.57-25.57v-503.48
			C9712.87,1679.8,9724.33,1668.34,9738.44,1668.34z"/>
		<path class="st0" d="M10099.15,1693.91v503.48c0,14.11-11.46,25.57-25.57,25.57H9918.1v-554.62h155.48
			C10087.69,1668.34,10099.15,1679.8,10099.15,1693.91z"/>
	</g>
	<g>
		<path class="st0" d="M10213.78,1821.93l53.89,93.34c0.39,0.68-0.1,1.53-0.88,1.53h-107.78c-0.78,0-1.27-0.85-0.88-1.53
			l53.89-93.34C10212.41,1821.26,10213.39,1821.26,10213.78,1821.93z"/>
	</g>
	<g>
		<path class="st0" d="M10212.9,2038.57l-53.89-93.34c-0.39-0.68,0.1-1.53,0.88-1.53l107.78,0c0.78,0,1.27,0.85,0.88,1.53
			l-53.89,93.34C10214.27,2039.25,10213.29,2039.25,10212.9,2038.57z"/>
	</g>
</g>
<g>
	<path class="st0" d="M812.56,3108.55l-74.74-43.15c-4.47-2.58-10.06,0.65-10.06,5.81v86.31c0,5.16,5.59,8.38,10.06,5.81
		l74.74-43.15C817.03,3117.58,817.03,3111.13,812.56,3108.55z"/>
	<path class="st0" d="M762.45,3354.75h-49.28v-295.91c4.82-4.15,7.95-10.23,7.95-17.09c0-12.5-10.14-22.64-22.64-22.64
		s-22.64,10.14-22.64,22.64c0,6.86,3.12,12.94,7.94,17.09v359.78c0,0.67,0.11,1.32,0.2,1.97v116.17c0,14.55-11.83,26.38-26.31,26.38
		H298.35c-14.48,0-26.31-11.83-26.31-26.38v-182.01h-78.48c-5.22,0-9.48,4.26-9.48,9.48v279.66c0,5.22,4.26,9.4,9.48,9.4h87.69
		v57.65c0,4.06,3.29,7.35,7.35,7.35c4.06,0,7.35-3.29,7.35-7.35v-57.65h371.31v57.65c0,4.06,3.29,7.35,7.35,7.35
		s7.35-3.29,7.35-7.35v-57.65h80.49c5.22,0,9.48-4.19,9.48-9.4v-279.66C771.92,3359.02,767.66,3354.75,762.45,3354.75z"/>
	<path class="st0" d="M298.35,3548.45h359.31c6.39,0,11.61-5.22,11.61-11.69v-182.01v-54.3c0-6.39-5.22-11.61-11.61-11.61H298.35
		c-6.39,0-11.61,5.22-11.61,11.61v54.3v182.01C286.74,3543.23,291.96,3548.45,298.35,3548.45z"/>
</g>
<g>
	<path class="st0" d="M4812.32,3178.56l-93.62-54.05c-3.04-1.76-6.84,0.44-6.84,3.95v108.1c0,3.51,3.8,5.71,6.84,3.95l93.62-54.05
		C4815.36,3184.7,4815.36,3180.32,4812.32,3178.56z"/>
	<circle class="st0" cx="4507.41" cy="3187.1" r="59.14"/>
	<polygon class="st0" points="4500.07,3519.43 4500.07,3601.21 4514.76,3601.21 4514.76,3519.43 4514.76,3505.1 4500.07,3505.1 	"/>
	<path class="st0" d="M4507.42,3444.48c-10.65,0-19.25,8.6-19.25,19.25c0,2.5,0.51,4.99,1.47,7.2c2.79,7.05,9.7,12.05,17.78,12.05
		s14.99-4.99,17.85-12.05c0.88-2.21,1.4-4.7,1.4-7.2C4526.67,3453.08,4518.07,3444.48,4507.42,3444.48z"/>
	<path class="st0" d="M4714.92,3374.97h-28.85v-250.18c10.54-3.17,18.26-12.84,18.26-24.41c0-14.14-11.47-25.61-25.61-25.61
		s-25.61,11.47-25.61,25.61c0,11.57,7.72,21.24,18.26,24.41v250.18h-143.49l31.57-114.28c1.87-5.07-3.85-9.6-8.29-6.53
		c-12.54,8.7-27.79,13.78-44.22,13.78c-16.08,0-31.01-4.89-43.36-13.25c-4.44-3.01-10.09,1.53-8.23,6.56l31.27,113.71h-186.71
		c-15.43,0-27.92,12.49-27.92,27.85v231.09c0,15.43,12.49,27.92,27.85,27.92l415.01,0.81c15.43,0,28-12.49,28-27.92v-231.9
		C4742.84,3387.46,4730.35,3374.97,4714.92,3374.97z M4507.42,3632.15c-59.74,0-108.16-48.42-108.16-108.16
		c0-59.74,48.42-108.16,108.16-108.16s108.16,48.42,108.16,108.16C4615.58,3583.73,4567.15,3632.15,4507.42,3632.15z"/>
</g>
<path class="st0" d="M1998.66,1729.82c-0.02-0.16-0.05-0.32-0.08-0.49c-0.25-1.49-0.71-2.91-1.34-4.23
	c-0.06-0.12-0.12-0.25-0.18-0.37c-0.33-0.65-0.69-1.29-1.11-1.88c-0.04-0.07-0.1-0.13-0.15-0.2c-0.38-0.54-0.8-1.05-1.24-1.53
	c-0.1-0.11-0.2-0.23-0.3-0.34c-0.49-0.51-1.02-0.99-1.58-1.44c-0.1-0.09-0.22-0.16-0.32-0.24c-0.54-0.41-1.1-0.79-1.68-1.12
	c-0.08-0.05-0.15-0.09-0.22-0.14c-0.66-0.37-1.35-0.68-2.06-0.96c-0.05-0.02-0.1-0.05-0.15-0.07l-170.99-64.04
	c-5.01-1.88-10.61-1.18-15.01,1.87c-0.8,0.55-1.54,19.77-2.21,50.73h-114.95c-10.21,0-18.51,8.3-18.51,18.51v440.27
	c0,8.12,6.58,14.7,14.7,14.7s14.7-6.58,14.7-14.7v-429.39h103.5c-2.69,156.69-4.23,488.5-4.23,488.5c0,5.16,2.45,10.02,6.59,13.1
	c2.84,2.11,6.26,3.21,9.71,3.21c1.59,0,3.18-0.23,4.73-0.7l170.99-51.87c0.01,0,0.01,0,0.01-0.01c0.78-0.24,1.53-0.54,2.25-0.89
	c0.12-0.06,0.24-0.11,0.36-0.18c0.68-0.35,1.34-0.74,1.96-1.17c0.11-0.08,0.21-0.16,0.32-0.24c0.57-0.42,1.12-0.88,1.63-1.37
	c0.06-0.06,0.12-0.11,0.18-0.17c0.54-0.53,1.02-1.11,1.48-1.7c0.09-0.12,0.18-0.24,0.27-0.36c0.44-0.61,0.85-1.25,1.21-1.93
	c0.04-0.07,0.06-0.14,0.1-0.21c0.33-0.65,0.62-1.33,0.87-2.04c0.03-0.09,0.07-0.18,0.1-0.27c0.24-0.73,0.42-1.47,0.56-2.24
	c0.03-0.15,0.05-0.3,0.07-0.45c0.12-0.78,0.2-1.57,0.2-2.39v-439.31C1998.83,1731.31,1998.76,1730.56,1998.66,1729.82z"/>
<g>
	<g>
		<path class="st0" d="M3017.73,3261.13l60.49-34.93c4.47-2.58,4.47-9.03,0-11.61l-60.49-34.93c-4.47-2.58-10.06,0.65-10.06,5.81
			v69.85C3007.68,3260.48,3013.26,3263.71,3017.73,3261.13z"/>
		<path class="st0" d="M3499.89,3214.59l-60.49-34.93c-4.47-2.58-10.06,0.65-10.06,5.81v69.85c0,5.16,5.59,8.39,10.06,5.81
			l60.49-34.93C3504.35,3223.62,3504.35,3217.17,3499.89,3214.59z"/>
		<path class="st0" d="M3235.08,3197.18l60.49-34.92c4.47-2.58,4.47-9.03,0-11.61l-60.49-34.92c-4.47-2.58-10.06,0.64-10.06,5.81
			v69.85C3225.02,3196.54,3230.61,3199.76,3235.08,3197.18z"/>
		<path class="st0" d="M3419.14,3437.65v-266.67c2.79-3.34,4.54-7.58,4.54-12.28c0-10.63-8.61-19.24-19.24-19.24
			c-10.62,0-19.24,8.61-19.24,19.24c0,4.7,1.75,8.94,4.54,12.28v255.4c-44.62-14.34-106.05-23.93-174.92-25.93v-293.43
			c2.79-3.34,4.54-7.58,4.54-12.28c0-10.62-8.61-19.24-19.24-19.24c-10.63,0-19.24,8.61-19.24,19.24c0,4.7,1.75,8.94,4.54,12.28
			v293.06c-72.91,0.2-139.01,8.88-187.95,22.9v-252c2.79-3.34,4.54-7.59,4.54-12.28c0-10.63-8.61-19.24-19.24-19.24
			c-10.63,0-19.24,8.61-19.24,19.24c0,4.69,1.75,8.94,4.54,12.28v261.86c-35.05,13.86-55.88,31.12-55.88,49.85
			c0,45.63,123.47,82.62,275.78,82.62s275.78-36.99,275.78-82.62C3463.78,3466.07,3447.34,3450.61,3419.14,3437.65z"/>
	</g>
	<path class="st0" d="M3589.47,3394.36c-7.79-2.26-15.94,2.22-18.2,10.02l-48.57,167.65c-0.73,2.53-2.22,4.54-4.09,5.52
		c-1.19,0.63-2.35,0.74-3.53,0.34c-29.49-9.79-86.84-20.41-139.67,18.48c-6.54,4.81-7.94,14.01-3.12,20.55
		c2.88,3.91,7.33,5.99,11.85,5.99c3.02,0,6.08-0.93,8.7-2.86c18.82-13.85,38.54-19.74,56.76-21.34v48.5c0,8.12,6.58,14.7,14.7,14.7
		s14.7-6.58,14.7-14.7v-47.68c10.46,1.45,19.67,3.88,26.83,6.26c8.8,2.92,18.2,2.13,26.47-2.23c8.91-4.68,15.7-13.2,18.64-23.36
		l48.57-167.64C3601.76,3404.76,3597.27,3396.61,3589.47,3394.36z"/>
	<path class="st0" d="M3000.59,3596.37c-52.83-38.89-110.19-28.27-139.66-18.48c-1.19,0.39-2.35,0.29-3.54-0.34
		c-1.87-0.98-3.36-2.99-4.09-5.52l-48.57-167.65c-2.26-7.79-10.4-12.3-18.2-10.02c-7.8,2.26-12.28,10.41-10.02,18.2l48.57,167.65
		c2.95,10.16,9.74,18.67,18.65,23.36c8.28,4.35,17.68,5.14,26.47,2.22c7.17-2.38,16.37-4.8,26.83-6.26v47.68
		c0,8.12,6.58,14.7,14.7,14.7s14.7-6.58,14.7-14.7v-48.51c18.22,1.6,37.93,7.49,56.76,21.34c2.62,1.93,5.68,2.86,8.7,2.86
		c4.51,0,8.97-2.07,11.85-5.99C3008.53,3610.38,3007.13,3601.18,3000.59,3596.37z"/>
</g>
<g>
	<path class="st0" d="M1831.05,3208.1l-52.46,0.22c13.08,16.53,33.21,27.11,55.84,27.11l109.19,0.44l67.67,51.07l0.22-77.59
		l1.47-1.98c9.63-12.49,14.62-27.41,14.62-43.06c0-39.16-31.89-71.05-71.05-71.05h-44.82c3.31,9.11,5.07,18.88,5.07,29.1
		C1916.8,3169.6,1878.37,3208.1,1831.05,3208.1z M1945.68,3143.73c10.43-10.43,27.33-10.43,37.77,0c10.43,10.43,10.43,27.34,0,37.77
		c-10.44,10.43-27.34,10.43-37.77,0C1935.25,3171.07,1935.25,3154.17,1945.68,3143.73z"/>
	<path class="st0" d="M1731.21,3271.95c-6.47,0-11.68,5.22-11.68,11.61v43.72v152.76c0,6.47,5.22,11.68,11.68,11.68h199.64
		c6.39,0,11.61-5.22,11.61-11.68v-152.76v-43.72c0-6.39-5.22-11.61-11.61-11.61H1731.21z"/>
	<path class="st0" d="M1653.97,3167.32l0.07,77.67l67.82-51.07l31.96-0.15l7.86-0.07h8.01l61.35-0.29
		c39.16,0,71.06-31.89,71.06-71.05c0-10.36-2.2-20.21-6.25-29.1c-1.1-2.5-2.42-5-3.82-7.35c-1.54-2.57-3.23-5-5.14-7.35
		c-12.93-16.68-33.14-27.34-55.84-27.34h-122.12c-39.24,0-71.13,31.89-71.13,71.13c0,15.65,5.07,30.49,14.62,43.06L1653.97,3167.32z
		 M1837.81,3139.47c-10.44,10.44-27.41,10.44-37.84,0c-10.07-10.06-10.43-26.16-1.1-36.59c0.07-0.07,0.22-0.15,0.22-0.15
		c0.22-0.37,0.59-0.74,0.88-1.03c6.17-6.17,14.55-8.67,22.56-7.5c0.07-0.08,0.15,0,0.15,0c5.58,0.73,10.87,3.23,15.14,7.5
		C1848.25,3112.14,1848.25,3129.04,1837.81,3139.47z M1702.17,3101.7c10.43-10.44,27.33-10.44,37.77,0
		c10.43,10.43,10.43,27.33,0,37.77c-10.43,10.44-27.33,10.44-37.77,0C1691.74,3129.04,1691.74,3112.14,1702.17,3101.7z"/>
	<path class="st0" d="M1941.32,3635.99v-53.51h56.03c5.22,0,9.48-4.26,9.48-9.48v-236.23c0-5.29-4.26-9.48-9.48-9.48h-40.19v152.76
		c0,14.55-11.83,26.38-26.31,26.38h-199.64c-14.55,0-26.38-11.83-26.38-26.38v-152.76h-40.19c-5.22,0-9.48,4.19-9.48,9.48V3573
		c0,5.22,4.26,9.48,9.48,9.48h56.03v53.81c-54.43,4.88-90.3,13.21-90.3,22.68c0,15.04,90.59,27.23,202.35,27.23
		c111.75,0,202.35-12.19,202.35-27.23C2035.05,3649.3,1997.66,3640.82,1941.32,3635.99z M1735.36,3635.08v-52.61h191.27v52.36
		c-28.07-1.98-60.01-3.11-93.92-3.11C1797.41,3631.73,1764.24,3632.95,1735.36,3635.08z"/>
</g>
<g>
	<path class="st0" d="M635.93,1604.36c-0.08-0.53-0.4-1.92-0.44-2.09c-0.17-0.6-0.64-1.89-0.66-1.96c-0.27-0.65-1.05-2.11-1.12-2.23
		c-0.28-0.48-1.14-1.71-1.27-1.87c-0.34-0.43-0.69-0.85-1.06-1.24c-0.1-0.1-2.05-1.87-2.17-1.96c-0.45-0.34-1.78-1.2-1.85-1.24
		c-0.56-0.33-1.14-0.63-1.74-0.89c-0.04-0.02-1.44-0.58-2.13-0.78c-0.13-0.04-1.47-0.36-2.01-0.46c-0.21-0.04-1.61-0.2-2.11-0.23
		c-0.21-0.01-3.19-0.04-4.12-0.04H298c-10.61,0-19.24,8.63-19.24,19.24v493.57c0,8.12,6.58,14.7,14.7,14.7s14.7-6.58,14.7-14.7
		v-483.42h251.68l-11.85,5.94l-123.08,65.8c-5.75,3.07-9.34,9.06-9.34,15.58v297.63c0,7.07,4.21,13.46,10.71,16.24l185.26,79.31
		c1.62,0.7,3.36,1.16,5.18,1.34c0.59,0.06,1.18,0.09,1.77,0.09l0,0c0,0,0,0,0,0c0.78,0,1.54-0.07,2.3-0.17
		c0.18-0.03,0.36-0.05,0.54-0.08c0.7-0.11,1.39-0.26,2.06-0.46c0.06-0.02,0.13-0.03,0.19-0.05c0.76-0.23,1.49-0.51,2.2-0.84
		c0.13-0.06,0.26-0.12,0.39-0.19c0.66-0.32,1.31-0.67,1.92-1.07c0.04-0.03,0.09-0.05,0.13-0.08c0.02-0.01,0.03-0.02,0.04-0.03
		c0.56-0.37,1.1-0.78,1.61-1.21c0.13-0.11,0.26-0.23,0.39-0.35c0.37-0.33,0.72-0.67,1.06-1.03c0.15-0.16,0.3-0.32,0.44-0.48
		c0.32-0.37,0.62-0.74,0.91-1.13c0.11-0.14,0.22-0.28,0.32-0.43c0.76-1.09,1.39-2.27,1.89-3.52c0.06-0.15,0.11-0.3,0.17-0.45
		c0.18-0.48,0.34-0.97,0.47-1.47c0.05-0.18,0.1-0.37,0.15-0.56c0.11-0.49,0.21-0.99,0.28-1.49c0.03-0.18,0.06-0.36,0.08-0.55
		c0.08-0.67,0.13-1.35,0.13-2.05v-475.73v-0.27C636.15,1606.31,635.96,1604.54,635.93,1604.36z"/>
	<path class="st0" d="M620.1,2259.7c9.26-13.58,14.69-29.99,14.69-47.66c0-46.79-37.93-84.72-84.72-84.72
		c-46.79,0-84.72,37.93-84.72,84.72c0,43.87,33.35,79.95,76.08,84.28c19.11,3.48,44.56,5.62,72.61,5.62
		c59.2,0,107.19-9.47,107.19-21.15C721.24,2269.51,676.47,2260.32,620.1,2259.7z"/>
</g>
<g>
	<g>
		<path class="st0" d="M4232.51,263.95l93.52-53.99c0.41-0.24,0.93,0.06,0.93,0.54v107.99c0,0.48-0.52,0.78-0.93,0.54l-93.52-53.99
			C4232.09,264.79,4232.09,264.19,4232.51,263.95z"/>
	</g>
	<path class="st0" d="M4608.31,519.94h-92.73V408.92h92.73c30.64,0,55.55,24.91,55.55,55.55
		C4663.86,495.03,4638.95,519.94,4608.31,519.94z"/>
	<path class="st0" d="M4854.39,577.11v80.16c0,12.49-10.21,22.63-22.71,22.63h-29.83c-14.4-25.72-41.88-43.13-73.41-43.13
		c-31.45,0-58.93,17.42-73.33,43.13h-139.54V541.99h92.73c42.77,0,77.59-34.76,77.59-77.52s-34.83-77.59-77.59-77.59h-114.78V653.6
		c-14.11-10.58-31.6-16.83-50.55-16.83c-31.45,0-58.93,17.42-73.33,43.13h-18.81V663.6c0-0.08,0-0.08,0-0.15v-444.7
		c0-4.04,3.23-7.35,7.35-7.35c4.04,0,7.35,3.31,7.35,7.35v102.35h367.03c0.22,0,0.37,0.08,0.59,0.08h65.1c4.04,0,7.35,3.3,7.35,7.35
		c0,4.04-3.31,7.35-7.35,7.35h-46.51c0.81,2.5,17.49,155.92,17.49,155.92C4774.37,517.08,4854.39,564.62,4854.39,577.11z"/>
	<g>
		<path class="st0" d="M4797.81,720.84c0,38.21-31.08,69.29-69.36,69.29c-38.21,0-69.29-31.08-69.29-69.29
			c0-15.36,5-29.47,13.3-40.93c12.64-17.19,33.07-28.44,55.99-28.44c23,0,43.35,11.24,55.99,28.44
			C4792.81,691.37,4797.81,705.48,4797.81,720.84z"/>
	</g>
	<g>
		<path class="st0" d="M4499.04,680.05c8.38,11.46,13.3,25.5,13.3,40.78c0,38.21-31.16,69.29-69.36,69.29
			c-38.21,0-69.29-31.08-69.29-69.29c0-15.36,5-29.47,13.37-40.93c12.56-17.19,32.99-28.44,55.92-28.44
			c19.91,0,37.91,8.45,50.55,21.97C4495.3,675.34,4499.04,680.05,4499.04,680.05z"/>
	</g>
</g>
<g>
	<g>
		<circle class="st0" cx="1809.46" cy="333.22" r="75.9"/>
		<path class="st0" d="M1786.05,619.28c-3.23-5.14-6.76-10.07-10.66-14.77c-2.79-3.38-5.73-6.62-9.11-10
			c-1.1-1.1-5.14-4.92-5.14-4.92c-4.04-3.75-8.3-7.2-12.79-10.29c-1.98-1.47-3.97-2.79-6.03-4.12
			c-22.63-14.55-48.79-22.19-75.76-22.19c-8.6,0-17.05,0.74-25.35,2.28c-5.95,1.03-11.83,2.5-17.56,4.33
			c-5.81,1.84-11.46,4.04-16.9,6.62c-49.01,22.85-80.9,72.01-80.9,127.41c0,77.59,63.12,140.64,140.71,140.64
			c77.52,0,140.64-63.05,140.64-140.64C1807.21,667.26,1799.79,641.47,1786.05,619.28z"/>
		<g>
			<path class="st0" d="M1642.03,285.17v247.99c-8.52,1.25-16.9,3.23-24.98,5.81c-6.32,1.98-12.42,4.41-18.37,7.05V285.17
				c0-11.98,9.7-21.68,21.67-21.68C1632.33,263.49,1642.03,273.19,1642.03,285.17z"/>
		</g>
		<path class="st0" d="M2007.66,761.61l-67.09-144.53c-11.54-24.98-36.74-41.15-64.29-41.15h-70.69l28.8-109.04
			c6.61-19.84-5-41.67-22.12-41.59l-42.1,0.15c-13.37,0.07-24.1,13.89-23.81,30.64l1.54,97.21c2.06,1.1,4.04,2.35,6.03,3.6
			c8.96,5.66,17.34,12.2,24.91,19.62c0.96,0.88,6.1,6.02,7.57,7.71c1.98,2.13,3.89,4.26,5.66,6.47h0.07
			c7.27,8.89,13.52,18.44,18.74,28.58h65.4c10.66,0,20.43,6.25,24.91,15.94l67.16,144.61c3.67,7.94,11.54,12.56,19.69,12.56
			c3.01,0,6.17-0.66,9.11-1.98C2008.03,785.34,2012.73,772.48,2007.66,761.61z"/>
	</g>
	<g>
		<path class="st0" d="M2069.38,261.39c0,14.04-11.46,25.42-25.42,25.42h-45.78v-50.77h45.78
			C2057.92,236.04,2069.38,247.43,2069.38,261.39z"/>
		<path class="st0" d="M2023.16,165.72c-64.29,0-116.39,52.1-116.39,116.39s52.1,116.39,116.39,116.39s116.39-52.1,116.39-116.39
			S2087.46,165.72,2023.16,165.72z M2043.96,308.86h-45.78v51.58h-22.04V214h67.82c26.16,0,47.47,21.23,47.47,47.39
			S2070.12,308.86,2043.96,308.86z"/>
	</g>
</g>
<g>
	<g>
		<path class="st1" d="M3179.93,335.87l74.74-43.15c4.47-2.58,4.47-9.03,0-11.61l-74.74-43.15c-4.47-2.58-10.06,0.65-10.06,5.81
			v86.31C3169.88,335.23,3175.46,338.45,3179.93,335.87z"/>
		<path class="st1" d="M3494.48,538.66l-64-63.05c-14.11-13.89-33.21-21.75-53.05-21.75h-181.79c-15.36,0-30.42,4.7-43.06,13.45
			l-1.18,0.81l-0.02,0.01V234.1c7.02-3.85,11.84-11.21,11.84-19.79c0-12.5-10.14-22.64-22.64-22.64s-22.64,10.14-22.64,22.64
			c0,8.57,4.82,15.94,11.85,19.79v249.02l-91.99,63.7c-7.42,5.07-15.58,8.82-24.25,11.1l-106.84,27.48
			c-28.14,7.2-47.76,32.55-47.76,61.57v78.41c0,4.48,3.6,8.08,8.01,8.08h65.32c0-48.57,39.46-88.03,87.95-88.03
			c48.57,0,88.03,39.46,88.03,88.03h167.46c0-48.57,39.46-88.03,87.95-88.03c48.57,0,88.03,39.46,88.03,88.03h57.31
			c4.41,0,8.01-3.6,8.01-8.08V592.59C3517.04,572.31,3508.96,552.92,3494.48,538.66z"/>
		<path class="st1" d="M3363.69,658.51c-41.29,0-74.95,33.58-74.95,74.95c0,41.29,33.65,74.87,74.95,74.87
			c41.3,0,74.95-33.58,74.95-74.87C3438.64,692.08,3404.98,658.51,3363.69,658.51z"/>
		<path class="st1" d="M3020.25,658.51c-41.3,0-74.95,33.58-74.95,74.95c0,41.29,33.65,74.87,74.95,74.87
			c41.37,0,74.95-33.58,74.95-74.87C3095.19,692.08,3061.61,658.51,3020.25,658.51z"/>
	</g>
	<g>
		<path class="st0" d="M3025.02,377.35c0,14.04-11.46,25.42-25.42,25.42h-45.78V352h45.78
			C3013.56,352,3025.02,363.39,3025.02,377.35z"/>
		<path class="st0" d="M2978.8,281.68c-64.29,0-116.39,52.1-116.39,116.39s52.1,116.39,116.39,116.39
			c64.29,0,116.39-52.1,116.39-116.39S3043.1,281.68,2978.8,281.68z M2999.6,424.82h-45.78v51.58h-22.04V329.96h67.82
			c26.16,0,47.47,21.23,47.47,47.39C3047.07,403.51,3025.76,424.82,2999.6,424.82z"/>
	</g>
</g>
<g>
	<path class="st0" d="M5830.69,442.2l0.01-0.01h180.01l0.01,0.01l26.31,55.04c8.45-4.92,17.56-8.74,27.11-11.54l-28.07-58.64
		c-0.5-1.08-1.16-2.08-1.94-2.94c-1.53-6.49-7.32-11.33-14.27-11.33h-176.01l20.86-46.5c3.67-8.16,9.99-15.06,17.86-19.4
		l62.31-34.46c7.13-3.89,9.7-12.86,5.81-19.98c-3.97-7.06-12.93-9.63-19.99-5.73l-62.38,34.46c-13.37,7.42-24.17,19.1-30.42,33.07
		l-59.08,131.67c9.55,2.72,18.59,6.61,27.04,11.54L5830.69,442.2z"/>
	<path class="st0" d="M5923.05,578.36c-8.16,0-14.7,6.54-14.7,14.7c0,8.08,6.54,14.7,14.7,14.7h50.92
		c-0.07-0.81-0.07-1.62-0.07-2.43c0-9.26,1.03-18.3,2.94-26.97H5923.05z"/>
	<path class="st0" d="M5799.83,510.97c-8.38-5-17.42-8.89-27.04-11.53c-9.19-2.5-18.81-3.82-28.81-3.82
		c-60.47,0-109.7,49.23-109.7,109.7c0,60.55,49.23,109.78,109.7,109.78c60.55,0,109.78-49.23,109.78-109.78
		C5853.76,565.2,5832.08,530.08,5799.83,510.97z"/>
	<path class="st0" d="M6098.37,495.62c-9.62,0-18.88,1.25-27.78,3.53c-9.63,2.57-18.81,6.39-27.19,11.32
		c-25.2,14.55-44.09,38.94-51.44,67.89c-2.2,8.6-3.38,17.63-3.38,26.97c0,0.81,0,1.62,0.07,2.43
		c1.25,59.45,49.97,107.35,109.7,107.35c60.47,0,109.7-49.23,109.7-109.78C6208.08,544.85,6158.84,495.62,6098.37,495.62z"/>
</g>
<g>
	<path class="st0" d="M7353.68,665.68h-98.14c-23.87,0-45.64-12.1-58.25-32.37l-85.01-136.69l0.01-0.04l34.39-174.88
		c2.5-12.56,10.14-23.73,21.02-30.49l71.2-44.53c6.91-4.33,8.96-13.37,4.7-20.28c-4.33-6.91-13.37-8.96-20.28-4.7l-71.2,44.53
		c-17.71,11.09-30.2,29.24-34.24,49.82l-35.34,179.88c0,0.04,0,0.05,0,0.07c-0.07,0.28-0.1,0.56-0.15,0.84l-23.66,120.18
		c10.14,0.66,19.77,2.94,28.66,6.69l16.61-84.72l0.01-0.04l68.34,109.89c18.01,28.95,49.11,46.24,83.21,46.24h98.14
		c8.12,0,14.7-6.58,14.7-14.7S7361.8,665.68,7353.68,665.68z"/>
	<path class="st0" d="M7454.92,631.5c-41.07,0-74.51,33.43-74.51,74.51c0,41.08,33.43,74.51,74.51,74.51
		c41.08,0,74.51-33.43,74.51-74.51C7529.43,664.93,7496,631.5,7454.92,631.5z"/>
	<path class="st0" d="M7084.44,638.55c-8.74-4.12-18.44-6.61-28.58-6.98c-1.03-0.07-1.98-0.07-3.01-0.07
		c-41.07,0-74.51,33.43-74.51,74.51c0,41.08,33.43,74.51,74.51,74.51c41.08,0,74.51-33.43,74.51-74.51
		C7127.35,676.25,7109.79,650.45,7084.44,638.55z"/>
</g>
<g>
	<path class="st0" d="M7350.53,3498.72c19.18-20.02,36.86-41.43,52.9-64.05c101.77-145.07,102.99-296.65,100.31-345.18
		c-0.49-8.81-8.16-15.37-16.95-14.65l-85.01,6.96c-24.14,1.98-43.93,19.95-48.21,43.78l-14.66,81.53
		c-2.66,14.79,1.03,30.02,10.18,41.95l38.36,50.04c-18.28,48.88-46.7,96.11-67.29,120.66c-23.21,27.67-62.63,63.16-105.14,89.2
		l-57.02-28.52c-13.44-6.72-29.09-7.47-43.11-2.06l-77.28,29.81c-22.6,8.72-36.5,31.54-33.88,55.62l9.24,84.79
		c0.96,8.77,8.85,15.06,17.59,13.87C7078.7,3655.94,7227.32,3626.09,7350.53,3498.72z"/>
</g>
<g>
	<g>
		<path class="st0" d="M8813.39,315.05c-9.26-99.64-91.26-178.99-191.12-185.24c-119.18-7.42-218.23,87.15-218.23,204.79
			c0,46.95,15.95,90.08,42.47,124.69l137.7,218.31c11.54,18.37,38.36,18.37,49.97,0l137.63-218.31
			C8802,419.97,8818.53,369.5,8813.39,315.05z M8609.19,423.36c-58.56,0-106.1-47.47-106.1-106.1c0-58.56,47.54-106.03,106.1-106.03
			s106.03,47.47,106.03,106.03C8715.22,375.88,8667.75,423.36,8609.19,423.36z"/>
	</g>
	<ellipse class="st0" cx="8609.18" cy="843.37" rx="202.35" ry="27.23"/>
</g>
<g>
	<path class="st0" d="M800.21,198.77H682.35c-0.11,0-0.21-0.03-0.32-0.03H214.18c-10.44,0-18.96,8.52-18.96,19.03V551.8
		c0,10.51,8.52,19.03,18.96,19.03h174.73c-11.54-14.7-18.44-33.36-18.44-53.42c0-48.06,39.02-87.15,87.07-87.15
		s87.07,39.09,87.07,87.15c0,20.06-6.91,38.72-18.44,53.42h155.85c10.51,0,19.03-8.52,19.03-19.03v-26.88
		c1.22,0.3,2.47,0.5,3.78,0.5h78.86c8.79,0,15.92-7.13,15.92-15.92V350.54c0-8.79-7.13-15.92-15.92-15.92h-54.02l74.49-129.01
		C805.92,202.57,803.72,198.77,800.21,198.77z M621.11,309.1H304.12c-4.04,0-7.35-3.31-7.35-7.35c0-4.04,3.31-7.35,7.35-7.35h316.99
		c4.04,0,7.35,3.3,7.35,7.35C628.46,305.8,625.15,309.1,621.11,309.1z"/>
	<path class="st0" d="M457.54,444.97c-39.9,0-72.38,32.48-72.38,72.45c0,21.09,9.11,40.19,23.59,53.42
		c8.82,8.08,19.69,13.96,31.74,16.9l-0.51,7.42l-0.44,7.49l-1.1,15.94l-196.7,47.4c-14.11,4.04-24.03,17.12-24.03,31.82v88.76
		c0,8.16,6.61,14.7,14.7,14.7c8.16,0,14.7-6.54,14.7-14.7v-88.76c0-1.62,1.1-3.09,2.13-3.38l217.13-52.39l2.57-38.35l0.44-7.42
		l0.51-7.5c13.89-2.43,26.45-8.82,36.45-17.93c14.48-13.22,23.59-32.33,23.59-53.42C529.92,477.44,497.44,444.97,457.54,444.97z"/>
</g>
<path class="st0" d="M3191.95,1651.11c-1.76-3.04-6.15-3.04-7.9,0l-145.04,251.22c-1.76,3.04,0.44,6.85,3.95,6.85h112.64v326.8
	c0,3.58,2.9,6.49,6.48,6.49h51.85c3.58,0,6.48-2.91,6.48-6.49v-326.8h112.64c3.51,0,5.71-3.8,3.95-6.85L3191.95,1651.11z"/>
<path class="st0" d="M4688.34,1982.12H4575.7v-326.81c0-3.58-2.9-6.48-6.48-6.48h-51.84c-3.58,0-6.49,2.9-6.49,6.48v326.81h-112.64
	c-3.51,0-5.71,3.8-3.95,6.85l145.04,251.22c1.76,3.04,6.15,3.04,7.9,0l145.04-251.22
	C4694.04,1985.92,4691.85,1982.12,4688.34,1982.12z"/>
<path class="st0" d="M5964.49,1796.65c-3.04-1.75-6.84,0.44-6.84,3.95v112.64h-326.81c-3.58,0-6.48,2.9-6.48,6.48v51.84
	c0,3.58,2.9,6.48,6.48,6.48h326.81v112.64c0,3.51,3.8,5.71,6.84,3.95l251.22-145.04c3.04-1.75,3.04-6.15,0-7.9L5964.49,1796.65z"/>
<path class="st0" d="M7544.22,1913.24h-326.81v-112.64c0-3.51-3.8-5.71-6.84-3.95l-251.22,145.05c-3.04,1.75-3.04,6.15,0,7.9
	l251.22,145.04c3.04,1.76,6.84-0.44,6.84-3.95v-112.64h326.81c3.58,0,6.48-2.9,6.48-6.48v-51.84
	C7550.7,1916.15,7547.8,1913.24,7544.22,1913.24z"/>
<g>
	<path class="st0" d="M6064.98,3095.25c0-7.71-6.32-14.03-14.04-14.03h-259.46c-7.79,0-14.03,6.32-14.03,14.03v115.36h287.52
		V3095.25z"/>
	<path class="st0" d="M6184.89,3225.31h-119.92h-287.52h-119.92c-12.64,0-22.92,10.29-22.92,22.92v274.81
		c0,12.64,10.29,22.85,22.92,22.85h100.23v-67.09c0-14.92,12.12-27.04,26.97-27.04h272.9c14.91,0,27.04,12.12,27.04,27.04v67.09
		h100.22c12.64,0,22.85-10.21,22.85-22.85v-274.81C6207.75,3235.6,6197.53,3225.31,6184.89,3225.31z M5744.16,3384.46
		c-10.8,10.8-28.29,10.8-39.09,0c-10.8-10.73-10.8-28.29,0-39.01c10.8-10.8,28.29-10.8,39.09,0
		C5754.97,3356.18,5754.97,3373.74,5744.16,3384.46z"/>
	<path class="st0" d="M6057.63,3466.47h-272.9c-6.76,0-12.27,5.59-12.27,12.35v67.09v7.35v7.35v83.25c0,6.83,5.51,12.35,12.27,12.35
		h272.9c6.83,0,12.34-5.51,12.34-12.35v-83.25v-7.35v-7.35v-67.09C6069.97,3472.05,6064.46,3466.47,6057.63,3466.47z"/>
</g>
<g>
	<path class="st0" d="M9838.99,3237.7l-42.59-75.06c-2.55-4.49-9-4.54-11.61-0.09l-43.71,74.42c-2.61,4.45,0.57,10.06,5.73,10.1
		l86.3,0.65C9838.27,3247.75,9841.54,3242.19,9838.99,3237.7z"/>
	<path class="st0" d="M10112.47,3393.14h-134.71l-149.2-262.96c2.15-5.99,1.86-12.82-1.52-18.79c-6.17-10.88-19.99-14.69-30.87-8.52
		c-10.88,6.17-14.69,19.99-8.52,30.86c3.39,5.97,9.1,9.72,15.34,10.95l140.97,248.46h-166.88c-1.48,0-2.69,1.21-2.69,2.69v70.5
		c0,1.49,1.2,2.69,2.69,2.69h209.92l91.36,161.03c2.71,4.77,7.68,7.44,12.8,7.44c2.46,0,4.95-0.62,7.24-1.92
		c7.06-4,9.54-12.97,5.53-20.03l-83.13-146.52h91.66c1.48,0,2.69-1.2,2.69-2.69v-70.5
		C10115.16,3394.35,10113.95,3393.14,10112.47,3393.14z"/>
	<path class="st0" d="M10186.11,3393.14h-36.98c-1.49,0-2.69,1.21-2.69,2.69v70.5c0,1.49,1.2,2.69,2.69,2.69h36.98
		c1.49,0,2.69-1.2,2.69-2.69v-70.5C10188.8,3394.35,10187.6,3393.14,10186.11,3393.14z"/>
	<path class="st0" d="M10160.27,3178.35v179.32c0,4.06,3.29,7.35,7.35,7.35c4.06,0,7.35-3.29,7.35-7.35v-179.32
		c0-15.38-12.51-27.9-27.9-27.9c-15.38,0-27.9,12.51-27.9,27.9v4.41c0,7.28-5.92,13.2-13.2,13.2s-13.2-5.92-13.2-13.2v-59.06
		c0-4.06-3.29-7.35-7.35-7.35s-7.35,3.29-7.35,7.35v59.06c0,15.38,12.51,27.9,27.9,27.9s27.9-12.51,27.9-27.9v-4.41
		c0-7.28,5.92-13.2,13.2-13.2C10154.35,3165.14,10160.27,3171.07,10160.27,3178.35z"/>
</g>
<g>
	<path class="st0" d="M8692.38,3443.28c10.24-11.53,19.85-23.62,28.78-36.21c76.21-108.63,77.12-222.15,75.12-258.49
		c-0.37-6.59-6.11-11.51-12.69-10.97l-63.66,5.21c-18.08,1.48-32.89,14.94-36.1,32.79l-10.98,61.05
		c-1.99,11.08,0.77,22.48,7.62,31.41l28.72,37.48c-12.58,33.65-31.53,66.08-46.49,85.41l-147.96-260.78
		c2.15-5.99,1.86-12.82-1.53-18.78c-6.17-10.88-19.99-14.69-30.86-8.52c-10.88,6.17-14.69,19.99-8.52,30.86
		c3.39,5.97,9.1,9.72,15.34,10.95l152.78,269.28c-16.92,16.68-38.76,34.57-61.89,48.74l-42.7-21.35
		c-10.07-5.03-21.79-5.6-32.29-1.55l-57.88,22.32c-16.92,6.53-27.33,23.62-25.37,41.65l6.92,63.5c0.71,6.57,6.62,11.28,13.17,10.39
		c34.72-4.72,139.14-25.64,229.2-112.27l93.42,164.66c2.71,4.77,7.68,7.44,12.8,7.44c2.46,0,4.95-0.62,7.24-1.92
		c7.06-4,9.54-12.97,5.53-20.03L8692.38,3443.28z"/>
	<path class="st0" d="M8432.98,3247.06l86.3,0.65c5.16,0.04,8.43-5.52,5.88-10.01l-42.59-75.06c-2.55-4.49-9-4.54-11.61-0.09
		l-43.71,74.42C8424.64,3241.41,8427.82,3247.02,8432.98,3247.06z"/>
</g>
<g>
	<g>
		<path class="st0" d="M10250.31,344.63c-29.29-23.26-135.62-99.88-274.5-107.63c0,0-24.84,0.12-25.92,0.19
			c-159.65,10.14-275.45,110.72-279.26,114.04c-0.08,0.08-0.08,0.08-0.08,0.08l53.28,57.77c0,0,0.65-0.82,2.04-2.37
			c12.81-14.61,87.07-90.9,238.59-94.57c149.16,3.59,223.33,77.52,237.94,93.76c1.79,2.04,2.69,3.18,2.69,3.18l53.28-57.77
			C10258.39,351.32,10255.61,348.87,10250.31,344.63z"/>
		<path class="st0" d="M10150.27,458.05c-11.67-10.28-87.35-70.53-185.8-70.17c-98.83-0.35-177.88,63.16-186.53,70.91
			c-0.57,0.49-0.82,0.73-0.82,0.73l51.82,56.14c0.98-1.06,1.96-2.04,2.94-3.02c45.78-46.76,107.46-52.88,132.6-53.28
			c25.05,0.41,86.17,6.45,131.94,52.55c1.22,1.22,2.37,2.45,3.59,3.75l51.82-56.14C10151.82,459.52,10151.33,459.03,10150.27,458.05
			z"/>
		<path class="st0" d="M9891.36,573.73l66.31,61.69c3.83,3.57,9.77,3.57,13.61,0l66.31-61.69
			C9989.67,528.38,9929.95,536.83,9891.36,573.73z"/>
	</g>
	<ellipse class="st0" cx="9964.47" cy="735.77" rx="202.35" ry="27.23"/>
</g>
</svg>
