<?xml version="1.0" encoding="UTF-8"?>
<svg id="Layer_2" width="24" data-name="Layer 2" xmlns="http://www.w3.org/2000/svg" viewBox="0 0 332.25 587.83">
  <g id="Layer_1-2" data-name="Layer 1">
    <path class="cls-1" d="M332.08,78.09c-.02-.16-.05-.32-.08-.49-.25-1.49-.71-2.91-1.34-4.23-.06-.12-.12-.25-.18-.37-.33-.65-.69-1.29-1.11-1.88-.04-.07-.1-.13-.15-.2-.38-.54-.8-1.05-1.24-1.53-.1-.11-.2-.23-.3-.34-.49-.51-1.02-.99-1.58-1.44-.1-.09-.22-.16-.32-.24-.54-.41-1.1-.79-1.68-1.12-.08-.05-.15-.09-.22-.14-.66-.37-1.35-.68-2.06-.96-.05-.02-.1-.05-.15-.07L150.68,1.04c-5.01-1.88-10.61-1.18-15.01,1.87-.8.55-1.54,19.77-2.21,50.73H18.51c-10.21,0-18.51,8.3-18.51,18.51v440.27c0,8.12,6.58,14.7,14.7,14.7s14.7-6.58,14.7-14.7V83.03h103.5c-2.69,156.69-4.23,488.5-4.23,488.5,0,5.16,2.45,10.02,6.59,13.1,2.84,2.11,6.26,3.21,9.71,3.21,1.59,0,3.18-.23,4.73-.7l170.99-51.87s0,0,.01,0c.78-.24,1.53-.54,2.25-.89.12-.06.24-.11.36-.18.68-.35,1.34-.74,1.96-1.17.11-.08.21-.16.32-.24.57-.42,1.12-.88,1.63-1.37.06-.06.12-.11.18-.17.54-.53,1.02-1.11,1.48-1.7.09-.12.18-.24.27-.36.44-.61.85-1.25,1.21-1.93.04-.07.06-.14.1-.21.33-.65.62-1.33.87-2.04.03-.09.07-.18.1-.27.24-.73.42-1.47.56-2.24.03-.15.05-.3.07-.45.12-.78.2-1.58.2-2.39V80.34c0-.77-.07-1.52-.17-2.26Z"/>
  </g>
</svg>