<?xml version="1.0" encoding="UTF-8"?>
<svg id="Layer_2" data-name="Layer 2" xmlns="http://www.w3.org/2000/svg" viewBox="0 0 631.82 699.19">
  <g id="Layer_1-2" data-name="Layer 1">
    <g>
      <path class="cls-1" d="M628.46,89.43l-74.74-43.15c-4.47-2.58-10.06.65-10.06,5.81v86.31c0,5.16,5.59,8.38,10.06,5.81l74.74-43.15c4.47-2.58,4.47-9.03,0-11.61Z"/>
      <path class="cls-1" d="M578.35,335.64h-49.28V39.73c4.82-4.15,7.95-10.23,7.95-17.09,0-12.5-10.14-22.64-22.64-22.64s-22.64,10.14-22.64,22.64c0,6.86,3.12,12.94,7.94,17.09v359.78c0,.67.11,1.32.2,1.97v116.17c0,14.55-11.83,26.38-26.31,26.38H114.26c-14.48,0-26.31-11.83-26.31-26.38v-182.01H9.48c-5.22,0-9.48,4.26-9.48,9.48v279.66c0,5.22,4.26,9.4,9.48,9.4h87.69v57.65c0,4.06,3.29,7.35,7.35,7.35s7.35-3.29,7.35-7.35v-57.65h371.31v57.65c0,4.06,3.29,7.35,7.35,7.35s7.35-3.29,7.35-7.35v-57.65h80.49c5.22,0,9.48-4.19,9.48-9.4v-279.66c0-5.22-4.26-9.48-9.48-9.48Z"/>
      <path class="cls-1" d="M114.26,529.34h359.31c6.39,0,11.61-5.22,11.61-11.69v-236.31c0-6.39-5.22-11.61-11.61-11.61H114.26c-6.39,0-11.61,5.22-11.61,11.61v236.31c0,6.47,5.22,11.69,11.61,11.69Z"/>
    </g>
  </g>
</svg>