<?xml version="1.0" encoding="UTF-8"?>
<svg id="Layer_2" data-name="Layer 2" width="24" xmlns="http://www.w3.org/2000/svg" viewBox="0 0 587.83 526.01">
  <g id="Layer_1-2" data-name="Layer 1">
    <g>
      <g>
        <path class="cls-1" d="M579.76,107.63C550.46,84.37,444.14,7.75,305.26,0c0,0-24.84.12-25.92.19C119.69,10.34,3.89,110.91.08,114.24l-.08.08,53.28,57.77s.65-.82,2.04-2.37c12.81-14.61,87.07-90.9,238.59-94.57,149.16,3.59,223.33,77.52,237.94,93.76,1.8,2.04,2.69,3.18,2.69,3.18l53.28-57.77s-2.77-2.45-8.08-6.69Z"/>
        <path class="cls-1" d="M479.72,221.05c-11.67-10.28-87.35-70.53-185.8-70.17-98.83-.35-177.88,63.16-186.53,70.91-.57.49-.82.73-.82.73l51.82,56.14c.98-1.06,1.96-2.04,2.94-3.02,45.78-46.76,107.46-52.88,132.6-53.28,25.05.41,86.17,6.45,131.94,52.55,1.22,1.22,2.37,2.45,3.59,3.75l51.81-56.14s-.49-.49-1.55-1.47Z"/>
        <path class="cls-1" d="M220.81,336.73l66.31,61.69c3.83,3.57,9.77,3.57,13.61,0l66.31-61.69c-47.92-45.35-107.63-36.9-146.22,0Z"/>
      </g>
      <ellipse class="cls-1" cx="293.92" cy="498.78" rx="202.35" ry="27.23"/>
    </g>
  </g>
</svg>